<svg width="24" height="24" viewBox="0 0 24 24" fill="none" xmlns="http://www.w3.org/2000/svg">
<g clip-path="url(#clip0_208_2894)">
<path d="M11.042 1.31152C11.7591 1.21678 12.388 1.21947 13.0225 1.40137C13.657 1.58335 14.1921 1.91458 14.75 2.375C15.2957 2.82538 15.9042 3.43549 16.667 4.19824L18.4971 6.02734C19.8265 7.35678 20.8779 8.40646 21.5879 9.33691C22.311 10.2847 22.75 11.1974 22.75 12.2627C22.7499 13.3278 22.311 14.2398 21.5879 15.1875C20.8779 16.118 19.8266 17.1676 18.4971 18.4971C17.1676 19.8266 16.118 20.8779 15.1875 21.5879C14.2398 22.311 13.3278 22.7499 12.2627 22.75C11.1974 22.75 10.2847 22.311 9.33691 21.5879C8.40646 20.8779 7.35678 19.8265 6.02734 18.4971L4.19824 16.667C3.43549 15.9042 2.82538 15.2957 2.375 14.75C1.91458 14.1921 1.58335 13.657 1.40137 13.0225C1.21947 12.388 1.21678 11.7591 1.31152 11.042C1.40423 10.3405 1.59923 9.50131 1.8418 8.4502L2.125 7.22168C2.32822 6.34104 2.49285 5.62469 2.68848 5.05469C2.88981 4.46809 3.1436 3.97554 3.55957 3.55957C3.97554 3.1436 4.46809 2.88981 5.05469 2.68848C5.62469 2.49285 6.34104 2.32822 7.22168 2.125L8.4502 1.8418C9.50131 1.59923 10.3405 1.40423 11.042 1.31152ZM9.59277 7.80176C9.09808 7.30707 8.29645 7.30707 7.80176 7.80176C7.30722 8.29646 7.30712 9.09813 7.80176 9.59277C8.2964 10.0873 9.0981 10.0873 9.59277 9.59277C10.0874 9.09811 10.0874 8.29646 9.59277 7.80176Z" stroke="#211E1F" stroke-width="1.5" stroke-linecap="round"/>
</g>
<defs>
<clipPath id="clip0_208_2894">
<rect width="24" height="24" fill="white"/>
</clipPath>
</defs>
</svg>
